<svg width="228" height="201" viewBox="0 0 228 201" fill="none" xmlns="http://www.w3.org/2000/svg">
<rect width="68.1169" height="110.326" transform="matrix(-1 0 0 1 122.628 24.4895)" fill="black"/>
<rect width="103.954" height="89.8096" transform="matrix(4.42268e-08 -1 -1 -4.3202e-08 211.374 148.233)" fill="black"/>
<rect width="31.0632" height="44.0713" transform="matrix(-1 0 0 1 131.04 120.704)" fill="black"/>
<rect width="13.3442" height="31.4281" transform="matrix(-1 0 0 1 205.192 147.407)" fill="black"/>
<rect width="13.3442" height="31.4281" transform="matrix(-1 0 0 1 122.628 157.056)" fill="black"/>
<rect width="17.9186" height="12.1301" transform="matrix(-1 0 0 1 203.923 178.834)" fill="black"/>
<rect width="17.9186" height="12.1301" transform="matrix(-1 0 0 1 124.468 188.484)" fill="black"/>
<rect width="17.9186" height="12.1301" transform="matrix(-1 0 0 1 91.4121 184.9)" fill="black"/>
<rect width="13.3442" height="23.4332" transform="matrix(-1 0 0 1 89.2246 161.466)" fill="black"/>
<path d="M15.0644 35.5426C15.2803 39.6533 41.2177 38.1897 50.4195 37.0025L50.4192 44.6928L51.2377 58.0953L37.6969 56.6849C26.7709 56.2424 1.14031 47.7274 0.0295581 34.1057C-0.859046 23.2083 18.5004 11.8219 28.2912 7.49093C23.7923 15.1287 14.8485 31.4318 15.0644 35.5426Z" fill="#57B4E9"/>
<path d="M89.8105 2.53698C94.7488 3.82333 102.208 6.40017 108.561 9.96733C111.737 11.7506 114.679 13.8046 116.892 16.1013C119.102 18.3945 120.655 21.0033 120.889 23.8843C121.178 27.4241 119.794 30.6198 117.513 33.4035C115.24 36.1789 112.032 38.6014 108.531 40.6489C101.546 44.7341 93.1787 47.448 88.0444 48.5041L75.6992 51.8597L74.847 52.0913L74.5109 51.274L70.1157 40.5585L67.449 36.0323L66.5949 34.5819L68.2775 34.525C72.585 34.3818 82.099 33.3658 90.4864 31.9024C94.6813 31.1705 98.5512 30.3345 101.33 29.4522C102.728 29.0082 103.792 28.5702 104.474 28.1582C104.816 27.9513 105.008 27.783 105.101 27.6685C105.116 27.6503 105.124 27.634 105.131 27.6229C105.083 27.2996 104.924 26.8 104.611 26.1151C104.285 25.4018 103.826 24.5561 103.259 23.6056C102.124 21.7055 100.585 19.4455 98.8816 17.0889C95.4765 12.3786 91.4544 7.34248 88.7903 4.14504L86.7973 1.75214L89.8105 2.53698Z" fill="#57B4E9" stroke="white" stroke-width="2"/>
<rect width="31.0632" height="44.0713" transform="matrix(-1 0 0 1 91.4121 117.395)" fill="black"/>
<rect width="44.3591" height="43.8421" transform="matrix(-1 0 0 1 84.7998 40.4111)" fill="black"/>
<rect width="30.9491" height="10.4551" transform="matrix(-1 0 0 1 74.8291 29.9563)" fill="black"/>
<rect width="35.348" height="14.5105" transform="matrix(-1 0 0 1 78.0957 84.2534)" fill="black"/>
<rect width="20.3335" height="20.6172" transform="matrix(-1 0 0 1 71.3896 84.2534)" fill="black"/>
<rect width="16.2667" height="55.7096" transform="matrix(-1 0 0 1 227.273 70.1934)" fill="black"/>
<rect width="9.97089" height="13.1067" transform="matrix(-1 0 0 1 40.4414 51.3379)" fill="black"/>
<rect width="9.97089" height="12.5623" transform="matrix(-1 0 0 1 94.7705 46.4106)" fill="black"/>
<path d="M51.0579 105.181H71.4275V99.1139H78.459V84.0837H84.8209V59.1253H95.0059V46.715H84.8209V40.5098H75.0545V30.03H42.9378V39.8679H39.3644V51.422H29.3587V55.4719" stroke="white" stroke-width="2"/>
</svg>
